<svg width="7" height="9" viewBox="0 0 7 9" fill="none" xmlns="http://www.w3.org/2000/svg">
<path d="M1 6.93445H0.75V7.18445H1V6.93445ZM6.67678 7.11123C6.77441 7.01359 6.77441 6.8553 6.67678 6.75767L5.08579 5.16668C4.98816 5.06905 4.82986 5.06905 4.73223 5.16668C4.6346 5.26431 4.6346 5.4226 4.73223 5.52023L6.14645 6.93445L4.73223 8.34866C4.6346 8.44629 4.6346 8.60458 4.73223 8.70222C4.82986 8.79985 4.98816 8.79985 5.08579 8.70222L6.67678 7.11123ZM0.75 0.934448V6.93445H1.25V0.934448H0.75ZM1 7.18445H6.5V6.68445H1V7.18445Z" fill="#C8D4F3"/>
</svg>
