<svg width="53" height="58" viewBox="0 0 53 58" fill="none" xmlns="http://www.w3.org/2000/svg">
<path fill-rule="evenodd" clip-rule="evenodd" d="M52.4973 54.7819H47.6578V0H0V57.9754H47.6823V58L52.4973 54.7819Z" fill="#141411"/>
<path fill-rule="evenodd" clip-rule="evenodd" d="M22.3058 21.839V5.60098H17.9576V15.4519L17.7857 15.108L10.465 5.57642H6.09231V21.8144H10.4405V11.9635L10.637 12.332L17.9822 21.8144H22.3058V21.839ZM41.8111 31.7882C41.8111 30.8301 41.6637 29.9457 41.3443 29.0859C41.0495 28.2261 40.6073 27.44 40.0669 26.7276C39.5265 26.0152 38.8877 25.4011 38.1508 24.8852C37.4138 24.3693 36.6031 23.9517 35.7433 23.6569C34.8835 23.3621 33.9746 23.2147 33.0165 23.2147C32.0584 23.2147 31.1495 23.3621 30.2897 23.6569C29.4299 23.9517 28.6192 24.3447 27.8822 24.8852C27.1453 25.4011 26.5065 26.0152 25.9661 26.7276C25.4257 27.44 25.008 28.2261 24.6887 29.0859C24.3939 29.9457 24.2219 30.8301 24.2219 31.7882C24.2219 32.7462 24.3693 33.6306 24.6887 34.4904C24.9835 35.3502 25.4011 36.1363 25.9661 36.8488C26.5065 37.5612 27.1453 38.1753 27.8822 38.6912C28.6192 39.2071 29.4299 39.6247 30.2897 39.8949C31.1495 40.1897 32.0584 40.3371 33.0165 40.3371C33.9746 40.3371 34.8835 40.1897 35.7433 39.8949C36.6031 39.6001 37.4138 39.2071 38.1508 38.6912C38.8877 38.1753 39.5265 37.5612 40.0669 36.8488C40.6073 36.1363 41.0495 35.3502 41.3443 34.4904C41.6637 33.6306 41.8111 32.7217 41.8111 31.7882ZM18.9648 34.7852C18.9648 35.08 18.8911 35.3502 18.7683 35.5959C18.6455 35.8415 18.4735 36.0381 18.2524 36.1609C18.0313 36.3083 17.7857 36.382 17.4909 36.382H10.4405V33.213H17.1961C17.5891 33.213 17.9085 33.2867 18.1787 33.4095C18.4489 33.5569 18.6455 33.7289 18.7683 33.9745C18.8911 34.2202 18.9648 34.4904 18.9648 34.7852ZM17.8102 28.4964C17.8102 28.7666 17.7365 29.0368 17.5891 29.2579C17.4663 29.479 17.2943 29.6755 17.0978 29.7984C16.9013 29.9212 16.6802 29.9949 16.4837 29.9949H10.465V27.2189H16.5328C16.7785 27.2189 16.9996 27.2681 17.1961 27.3663C17.3926 27.4646 17.54 27.612 17.6628 27.8085C17.7611 28.005 17.8102 28.2507 17.8102 28.4964ZM23.3621 34.9572C23.3621 34.515 23.2884 34.0974 23.141 33.6798C22.9936 33.2621 22.7971 32.8445 22.5269 32.476C22.2812 32.1075 21.9619 31.7636 21.6179 31.4934C21.274 31.2232 20.881 31.0021 20.4879 30.8547C20.709 30.7073 20.9055 30.5108 21.1266 30.2405C21.3477 29.9703 21.5197 29.651 21.6671 29.307C21.8145 28.9631 21.8882 28.6192 21.8882 28.2507C21.8882 27.5874 21.7653 26.9733 21.5197 26.4083C21.274 25.8433 20.9301 25.3765 20.4879 24.9589C20.0457 24.5413 19.5298 24.2465 18.9157 24.0008C18.3261 23.7797 17.6628 23.6569 16.9504 23.6569C16.3363 23.6569 10.7107 23.6569 10.2194 23.6569C9.72805 23.6569 9.23673 23.6569 8.81911 23.6569C8.37693 23.6569 7.93475 23.6569 7.49257 23.6569C7.05038 23.6569 6.58363 23.6569 6.06775 23.6569V39.9195H17.4663C18.277 39.9195 19.0385 39.7967 19.7509 39.5264C20.4633 39.2808 21.0775 38.9123 21.6179 38.4455C22.1584 37.9788 22.576 37.4629 22.8708 36.8488C23.2147 36.3083 23.3621 35.6696 23.3621 34.9572ZM40.7793 5.57642V9.38412H29.3562V11.6442H40.116V15.1817H29.3562V18.0313H40.7793V21.8144H25.008V5.57642H40.7793Z" fill="white"/>
<path fill-rule="evenodd" clip-rule="evenodd" d="M7.27144 44.2185V43.629H7.78734C7.86103 43.629 7.91016 43.6535 7.98386 43.6535C8.03299 43.6781 8.08212 43.7027 8.10669 43.7518C8.13125 43.8009 8.15582 43.8501 8.15582 43.8992C8.15582 43.9729 8.13125 44.022 8.10669 44.0711C8.08212 44.1203 8.03299 44.1448 7.98386 44.1694C7.93473 44.194 7.86103 44.2185 7.78734 44.2185H7.27144ZM8.62257 44.9064C8.76996 44.8327 8.89279 44.759 8.99105 44.6362C9.08932 44.5379 9.16302 44.4151 9.21215 44.2677C9.26128 44.1449 9.28585 43.9974 9.28585 43.8255C9.28585 43.6535 9.26128 43.5061 9.18758 43.3587C9.13845 43.2113 9.04019 43.0885 8.8928 42.9903C8.76997 42.8674 8.62256 42.7937 8.4506 42.7446C8.27864 42.6955 8.10668 42.6709 7.88559 42.6709H6.09229V46.3558H7.22231V45.0292H7.36971L8.35235 46.3558H9.6789L8.62257 44.9064Z" fill="white"/>
<path fill-rule="evenodd" clip-rule="evenodd" d="M14.3956 46.3558V45.3731H12.6023V44.8573H13.978V43.9729H12.6023V43.629H14.3711V42.6709H11.4723V46.3558H14.3956Z" fill="white"/>
<path fill-rule="evenodd" clip-rule="evenodd" d="M18.2771 46.4295C18.4736 46.4295 18.6456 46.4049 18.8175 46.3804C18.9895 46.3558 19.1369 46.3067 19.2597 46.233V45.1521C19.1369 45.2503 18.9895 45.2995 18.8421 45.3486C18.6947 45.3977 18.5228 45.4223 18.3508 45.4223C18.2034 45.4223 18.056 45.3977 17.9577 45.3486C17.8349 45.2995 17.7366 45.2503 17.6384 45.1521C17.4419 44.9801 17.3436 44.759 17.3436 44.5134C17.3436 44.3905 17.3682 44.2677 17.4173 44.1694C17.4664 44.0712 17.5401 43.9729 17.6138 43.8746C17.7121 43.7764 17.8103 43.7273 17.9332 43.6781C18.056 43.629 18.1788 43.6044 18.3262 43.6044C18.4736 43.6044 18.621 43.629 18.7684 43.6536C18.9158 43.7027 19.0632 43.7518 19.2106 43.8255V42.7446C19.0878 42.6709 18.9404 42.6218 18.793 42.5972C18.6456 42.5726 18.4736 42.5481 18.2771 42.5481C17.9823 42.5481 17.6875 42.5972 17.4419 42.6709C17.1962 42.7692 16.9751 42.892 16.754 43.064C16.5575 43.2359 16.4101 43.457 16.3118 43.6781C16.2136 43.8992 16.1644 44.1694 16.1644 44.4397C16.1644 44.7099 16.2136 44.9801 16.3118 45.2012C16.4101 45.4223 16.5575 45.6434 16.754 45.8154C16.9505 45.9873 17.1716 46.1347 17.4419 46.2084C17.6875 46.3804 17.9823 46.4295 18.2771 46.4295Z" fill="white"/>
<path fill-rule="evenodd" clip-rule="evenodd" d="M21.1021 44.5133C21.1021 44.7835 21.1512 45.0292 21.2495 45.2503C21.3477 45.4714 21.4951 45.6925 21.6671 45.8644C21.8636 46.061 22.0601 46.1838 22.3058 46.282C22.5514 46.3803 22.7971 46.4295 23.0919 46.4295C23.3867 46.4295 23.6323 46.3803 23.878 46.282C24.1237 46.1838 24.3202 46.061 24.5167 45.8644C24.7132 45.6679 24.8361 45.4714 24.9343 45.2503C25.0326 45.0292 25.0817 44.7835 25.0817 44.5133C25.0817 44.2431 25.0326 43.9974 24.9343 43.7763C24.8361 43.5552 24.7132 43.3342 24.5167 43.1622C24.3202 42.9657 24.1237 42.8428 23.878 42.7446C23.6569 42.6463 23.3867 42.5972 23.0919 42.5972C22.7971 42.5972 22.5514 42.6463 22.3058 42.7446C22.0601 42.8428 21.8636 42.9902 21.6671 43.1622C21.4706 43.3587 21.3477 43.5552 21.2495 43.7763C21.1512 43.9974 21.1021 44.2431 21.1021 44.5133ZM22.5023 45.152C22.4286 45.0783 22.3549 44.9801 22.3303 44.8572C22.2812 44.759 22.2812 44.6361 22.2812 44.5133C22.2812 44.3905 22.3058 44.2677 22.3303 44.1694C22.3795 44.0711 22.4286 43.9729 22.5023 43.8992C22.6497 43.7272 22.8462 43.6535 23.0919 43.6535C23.3376 43.6535 23.5341 43.7272 23.6815 43.8992C23.7552 43.9729 23.8043 44.0711 23.8534 44.1694C23.9026 44.2677 23.9026 44.3905 23.9026 44.5133C23.9026 44.6361 23.878 44.759 23.8534 44.8572C23.8043 44.9555 23.7552 45.0538 23.6815 45.152C23.6078 45.2257 23.5095 45.2994 23.4112 45.3485C23.313 45.3977 23.2147 45.4222 23.0919 45.4222C22.9691 45.4222 22.8708 45.3977 22.7725 45.3485C22.6497 45.2994 22.576 45.2257 22.5023 45.152Z" fill="white"/>
<path fill-rule="evenodd" clip-rule="evenodd" d="M28.1524 44.2185V43.629H28.6683C28.742 43.629 28.7911 43.6535 28.8648 43.6535C28.9139 43.6781 28.9631 43.7027 28.9876 43.7518C29.0122 43.8009 29.0368 43.8501 29.0368 43.8992C29.0368 43.9729 29.0122 44.022 28.9876 44.0711C28.9631 44.1203 28.9139 44.1448 28.8648 44.1694C28.8157 44.194 28.742 44.2185 28.6683 44.2185H28.1524ZM29.5281 44.9064C29.6755 44.8327 29.7983 44.759 29.8966 44.6362C29.9949 44.5379 30.0685 44.4151 30.1177 44.2677C30.1668 44.1449 30.1914 43.9974 30.1914 43.8255C30.1914 43.6535 30.1668 43.5061 30.0931 43.3587C30.044 43.2113 29.9457 43.0885 29.7983 42.9903C29.6755 42.8674 29.5281 42.7937 29.3561 42.7446C29.1842 42.6955 29.0122 42.6709 28.7911 42.6709H26.9978V46.3558H28.1278V45.0292H28.2998L29.2824 46.3558H30.609L29.5281 44.9064Z" fill="white"/>
<path fill-rule="evenodd" clip-rule="evenodd" d="M33.5078 43.629H33.8518C34.1711 43.629 34.3922 43.7027 34.5642 43.8501C34.7361 43.9975 34.8098 44.2185 34.8098 44.4888C34.8098 44.7836 34.7361 44.9801 34.5642 45.1275C34.3922 45.2749 34.1711 45.3486 33.8518 45.3486H33.5078V43.629ZM33.9255 46.3558C34.2202 46.3558 34.4905 46.3066 34.7607 46.2329C35.0064 46.1347 35.2275 46.0118 35.424 45.8399C35.6205 45.6679 35.7679 45.4714 35.8416 45.2503C35.9399 45.0292 35.989 44.7836 35.989 44.5133C35.989 44.2431 35.9399 43.9975 35.8416 43.7764C35.7433 43.5553 35.5959 43.3587 35.424 43.1868C35.2275 43.0148 35.0064 42.892 34.7607 42.7937C34.515 42.6955 34.2448 42.6709 33.9255 42.6709H32.3778V46.3558H33.9255Z" fill="white"/>
<path fill-rule="evenodd" clip-rule="evenodd" d="M39.4037 46.4295C39.6494 46.4295 39.8705 46.405 40.067 46.3558C40.2635 46.3067 40.4355 46.2084 40.5829 46.1102C40.7303 45.9874 40.8531 45.8645 40.9268 45.7171C41.0005 45.5697 41.0496 45.3978 41.0496 45.2258C41.0496 45.0293 41.0005 44.8819 40.9268 44.7345C40.8531 44.5871 40.7057 44.4643 40.5583 44.366C40.3864 44.2677 40.1898 44.1695 39.9196 44.0958C39.7477 44.0466 39.6003 43.9975 39.4774 43.9729C39.3546 43.9238 39.2809 43.8992 39.2318 43.8747C39.1826 43.8501 39.1335 43.8256 39.1089 43.801C39.0844 43.7764 39.0598 43.7519 39.0598 43.7273C39.0598 43.6782 39.0844 43.6536 39.1335 43.629C39.1826 43.6045 39.2809 43.6045 39.3792 43.6045C39.4774 43.6045 39.6003 43.6045 39.7231 43.629C39.8459 43.6536 39.9687 43.6781 40.1161 43.7027C40.2635 43.7273 40.3864 43.7764 40.4846 43.8255C40.6075 43.8747 40.7057 43.9238 40.7794 43.9729V42.9166C40.5829 42.8184 40.3618 42.7447 40.1407 42.6955C39.9196 42.6464 39.6985 42.6218 39.4529 42.6218C39.2072 42.6218 38.9861 42.6464 38.7896 42.6955C38.5931 42.7447 38.4211 42.8184 38.2983 42.9166C38.1509 43.0149 38.0526 43.1377 37.9789 43.2851C37.9052 43.4325 37.8806 43.6045 37.8561 43.7764C37.8561 43.973 37.9052 44.1695 38.0035 44.3169C38.1017 44.4643 38.2491 44.5871 38.4211 44.6853C38.5931 44.7836 38.8141 44.8819 39.0844 44.9556C39.2318 45.0047 39.3546 45.0293 39.4529 45.0784C39.5511 45.103 39.6248 45.1521 39.674 45.1767C39.7231 45.2012 39.7722 45.2258 39.7968 45.2504C39.8214 45.2749 39.8459 45.2995 39.8459 45.3241C39.8459 45.4469 39.6985 45.496 39.4283 45.496C39.3055 45.496 39.1826 45.4715 39.0352 45.4469C38.8878 45.4223 38.7405 45.3732 38.5931 45.3241C38.4457 45.2749 38.2983 45.2258 38.1754 45.1521C38.0526 45.103 37.9543 45.0293 37.8561 44.9556V46.061C38.2737 46.3067 38.7896 46.4295 39.4037 46.4295Z" fill="white"/>
<path fill-rule="evenodd" clip-rule="evenodd" d="M34.1712 25.9417L28.4719 30.904L32.992 30.8303L29.602 37.4385L37.3648 29.2335L32.7464 29.258L34.1712 25.9417Z" fill="#141411"/>
</svg>
