<svg width="10" height="9" viewBox="0 0 10 9" fill="none" xmlns="http://www.w3.org/2000/svg">
<g clip-path="url(#clip0)">
<path d="M8.01562 1.125H7.63395V0.374977C7.63395 0.168022 7.46293 0 7.25221 0H6.87054C6.65982 0 6.48886 0.168022 6.48886 0.374977V1.125H2.67185V0.374977C2.67185 0.168022 2.5009 0 2.29018 0H1.90851C1.69778 0 1.52676 0.168022 1.52676 0.374977V1.125H1.14509C0.513767 1.125 0 1.62975 0 2.25V7.875C0 8.49525 0.513767 9 1.14509 9H8.01562C8.64695 9 9.16071 8.49525 9.16071 7.875V2.25C9.16071 1.62975 8.64695 1.125 8.01562 1.125ZM8.3973 7.875C8.3973 8.08161 8.22593 8.24998 8.01562 8.24998H1.14509C0.934788 8.24998 0.763416 8.08161 0.763416 7.875V3.76501H8.3973V7.875Z" fill="#FF0066"/>
</g>
<defs>
<clipPath id="clip0">
<rect width="9.16071" height="9" fill="white"/>
</clipPath>
</defs>
</svg>
