<svg width="10" height="9" viewBox="0 0 10 9" fill="none" xmlns="http://www.w3.org/2000/svg">
<path d="M8.9119 6.60509L7.63349 5.34912C7.17692 4.90055 6.40075 5.08 6.21812 5.66311C6.08114 6.06683 5.62457 6.29112 5.21365 6.20139C4.30051 5.9771 3.06776 4.81084 2.83947 3.86886C2.7025 3.46513 2.97645 3.01657 3.38736 2.88202C3.98091 2.70259 4.16354 1.94004 3.70696 1.49147L2.42856 0.235496C2.0633 -0.0784985 1.51541 -0.0784985 1.19581 0.235496L0.328321 1.08777C-0.539168 1.98489 0.419636 4.36228 2.56553 6.47052C4.71142 8.57877 7.13126 9.56563 8.04441 8.66848L8.9119 7.81621C9.23152 7.45736 9.23152 6.91909 8.9119 6.60509Z" fill="#FF0066"/>
</svg>
